<svg id="Layer_1" data-name="Layer 1" xmlns="http://www.w3.org/2000/svg" viewBox="0 0 1742.53 538.53"><defs><style>.cls-1{fill:#252525;}</style></defs><title>fullnew</title><path class="cls-1" d="M624.32,1028.69q-40.17-23.54-90.72-23.55t-91.07,23.55q-40.51,23.55-63.72,65.79t-23.2,95.57q0,53.34,24.24,95.58t67.52,66.14q43.28,23.89,99.39,23.89,43.62,0,80-15.23a156,156,0,0,0,60.6-44.33l-27.71-31.86a135.89,135.89,0,0,1-49.17,35.67Q582.06,1332,548.14,1332q-60.25,0-99.73-35t-43.63-91.77H709.51l.69-15.24q0-54-22.85-95.91T624.32,1028.69Zm-219.54,139.9q4.85-54,40.52-87.61t88.3-33.59q53.32,0,89,33.59t40.52,87.61Z" transform="translate(-235.32 -837.13)"/><path class="cls-1" d="M869.83,1065.74q31.5-17.65,71-17.66a135.63,135.63,0,0,1,60.26,13.51q27.69,13.5,45.71,40.51l36.7-24.93A139.84,139.84,0,0,0,1025,1023.5q-37.07-18.35-84.15-18.36-54,0-96.61,23.55a171.25,171.25,0,0,0-66.83,65.79q-24.25,42.26-24.24,95.57T777.37,1286a170.44,170.44,0,0,0,66.83,66.13q42.6,23.57,96.61,23.55,46.4,0,83.8-18.35a139.27,139.27,0,0,0,58.87-53.67l-36.7-24.94q-18,27-45.71,40.17T940.81,1332q-39.46,0-71-17.66a124.48,124.48,0,0,1-49.17-49.87Q803,1232.31,803,1190.05q0-41.54,17.66-74.1T869.83,1065.74Z" transform="translate(-235.32 -837.13)"/><path class="cls-1" d="M1892,1028.69q-40.17-23.54-90.72-23.55t-91.08,23.55q-40.52,23.55-63.71,65.79t-23.2,95.57q0,53.34,24.24,95.58t67.52,66.14q43.28,23.89,99.38,23.89,43.63,0,80-15.23t60.6-44.33l-27.7-31.86a135.89,135.89,0,0,1-49.17,35.67Q1849.72,1332,1815.8,1332q-60.25,0-99.73-35t-43.63-91.77h304.72l.7-15.24q0-54-22.86-95.91T1892,1028.69Zm-219.54,139.9q4.83-54,40.51-87.61t88.31-33.59q53.31,0,89,33.59t40.51,87.61Z" transform="translate(-235.32 -837.13)"/><path class="cls-1" d="M1892,1028.69q-40.17-23.54-90.72-23.55t-91.08,23.55q-40.52,23.55-63.71,65.79t-23.2,95.57q0,53.34,24.24,95.58t67.52,66.14q43.28,23.89,99.38,23.89,43.63,0,80-15.23t60.6-44.33l-27.7-31.86a135.89,135.89,0,0,1-49.17,35.67Q1849.72,1332,1815.8,1332q-60.25,0-99.73-35t-43.63-91.77h304.72l.7-15.24q0-54-22.86-95.91T1892,1028.69Zm-219.54,139.9q4.83-54,40.51-87.61t88.31-33.59q53.31,0,89,33.59t40.51,87.61Z" transform="translate(-235.32 -837.13)"/><rect class="cls-1" x="19.17" y="170.79" width="49.17" height="364.28"/><path class="cls-1" d="M1336.43,1163.34c3.51-40.25,7-80.13,10.51-120.57H1261c-2.88-14-5.7-27.79-8.66-42.26h98.34c2.65-29.65,5.25-58.64,7.87-87.88h43.7c-.51,8.1-.84,16-1.53,24-1.38,15.8-3,31.58-4.44,47.37-.52,5.5-.8,11-1.63,16.51-.58,3.79.55,5.37,4.76,6.28,44,9.48,82.52,28.7,114.33,58.5,31.61,29.61,52.37,64.78,58.06,106.63,7.68,56.57-11,105-54.25,145.14-34.39,31.91-76.5,50-124.49,56.08-69.67,8.75-132.73-6.62-187.8-47.3-38.88-28.72-64.27-65.79-74.54-111.29-.08-.33.18-.73.37-1.41h45c5.26,11.17,9.59,22.53,15.71,33,20.56,35.1,52.19,58.75,91.69,73.61,32.8,12.33,67,16.51,101.94,11.65,55.57-7.74,100.49-31.6,127.33-79.07,18.11-32,20.13-65.89,7.2-100-16.94-44.73-50.93-74.72-97-93.6-10-4.13-20.63-7.12-32.23-11.06-3.7,41.48-7.27,81.52-10.9,122.34h8c25.43,0,50.87.07,76.3-.09,4.45,0,6.42.88,7.18,5.45,2,12,4.84,23.9,7.48,36.54H1376.24c-1.22,13.94-2.43,27.39-3.57,40.85-1.27,15-2.41,30.08-3.84,45.11-.11,1.22-2,3.27-3,3.29-13.57.22-27.15.15-41.56.15,2.8-32,5.53-63.07,8.29-94.53-9.6-2.86-19.5-5.33-29-8.73-64.07-22.94-111.77-62.26-134.37-123.26-23.07-62.29-10.25-119.61,36.06-169.8,27.92-30.26,63.79-49,104.81-59.84a237.15,237.15,0,0,1,79.59-7.23c79.47,6.25,143.22,38.2,186.61,101.73,4.83,7.07,8.61,14.78,12.56,22.33,2.23,4.26,3.81,8.81,6.06,14.12-16.3,0-31.7.07-47.1-.14-1.3,0-3-1.74-3.78-3-26.91-48.33-70.36-76.65-126.58-88.38-54.47-11.36-105.86-3.69-151.83,26.7-34.71,23-55.85,54.05-60.33,94.07-4.55,40.6,10.34,75.08,38.51,105.26C1268.48,1137.05,1299.9,1153.73,1336.43,1163.34Z" transform="translate(-235.32 -837.13)"/><circle class="cls-1" cx="44.5" cy="56.08" r="44.5"/><rect class="cls-1" x="44.5" y="35.8" width="973.02" height="40.6"/></svg>